<svg xmlns="http://www.w3.org/2000/svg" height="245" width="935" fill="#35d4bc"><path d="M63 177l43-106c1-3 4-5 7-5h29a8 8 0 0 1 7 5l28 68c2 6-2 11-8 11h-44c-17 0-33 7-45 19l-12 12c-3 2-7-1-5-4zM0 122c0 68 55 123 123 123s123-55 123-123S191 0 123 0 0 55 0 122m357 2l-7-19-8 19zm-13-34h12l24 58h-13l-5-13h-24l-6 13h-12l24-58m81 1h13v45h28v12h-41V91m107 29c7 0 10-4 10-9 0-6-4-9-10-9h-10v18zm-22-29h23c14 0 22 8 22 20 0 13-10 20-23 20h-10v17h-12V91m86 0h12v22h23V91h13v57h-13v-23h-23v23h-12V91m96 0h13v57h-13V91m60 0h43v11h-31v12h27v11h-27v12h32v11h-44V91m87 0h12l27 35V91h12v57h-10l-28-36v36h-13V91"/></svg>