<?xml version="1.0" encoding="iso-8859-1"?>
<!-- Uploaded to: SVG Repo, www.svgrepo.com, Generator: SVG Repo Mixer Tools -->
<svg height="800px" width="800px" version="1.1" id="Layer_1" xmlns="http://www.w3.org/2000/svg" xmlns:xlink="http://www.w3.org/1999/xlink" 
	 viewBox="0 0 508 508" xml:space="preserve">
<path style="fill:#FFFFFF;" d="M229.2,62.6H42.3c-7.8,0-14.1,6.3-14.1,14.1v389c0,7.8,6.3,14.1,14.1,14.1h243.5
	c7.8,0,14.1-6.3,14.1-14.1V299.8"/>
<path style="fill:#56ACE0;" d="M56.4,214.8h73.9c7.8,0,14.1,6.3,14.1,14.1s-6.3,14.1-14.1,14.1H56.4v37.9h42.7
	c7.8,0,14.1,6.3,14.1,14.1c0,7.8-6.3,14.1-14.1,14.1H56.4V388h215.2v-98.6l-0.2-3.7c-43.7-27.4-72.8-75.8-72.8-131.1
	c0-22.9,5.1-44.5,14-64.1H56.4V214.8z"/>
<path style="fill:#FFC10D;" d="M479.8,154.7c0-69.7-56.7-126.4-126.4-126.4S227,85,227,154.7s56.7,126.4,126.4,126.4
	S479.8,224.4,479.8,154.7z"/>
<g>
	<path style="fill:#194F82;" d="M342.1,99.7h57c7.8,0,14.1-6.3,14.1-14.1s-6.3-14.1-14.1-14.1h-23V59.4c0-7.8-6.3-14.1-14.1-14.1
		c-7.8,0-14.1,6.3-14.1,14.1v12.1h-5.7c-26.8,0-48.6,21.8-48.6,48.6s21.8,48.6,48.6,48.6h22.4c11.3,0,20.4,9.2,20.4,20.4
		c0,11.3-9.2,20.4-20.4,20.4h-57c-7.8,0-14.1,6.3-14.1,14.1s6.3,14.1,14.1,14.1h40.3V250c0,7.8,6.3,14.1,14.1,14.1
		c7.8,0,14.1-6.3,14.1-14.1v-13.6c21.3-5.2,37.1-24.4,37.1-47.2c0-26.8-21.8-48.6-48.6-48.6h-22.4c-11.3,0-20.4-9.2-20.4-20.4
		C321.7,108.8,330.9,99.7,342.1,99.7z"/>
	<path style="fill:#194F82;" d="M177.1,420.7H151c-7.8,0-14.1,6.3-14.1,14.1s6.3,14.1,14.1,14.1h26.2c7.8,0,14.1-6.3,14.1-14.1
		S184.9,420.7,177.1,420.7z"/>
	<path style="fill:#194F82;" d="M353.3,0c-36.7,0-70.5,12.9-97,34.3h-214C19,34.3,0,53.3,0,76.7v389C0,489,19,508,42.3,508h243.5
		c23.3,0,42.3-19,42.3-42.3V307.2c8.2,1.4,16.6,2.1,25.2,2.1c85.3,0,154.7-69.4,154.7-154.7C508,69.4,438.6,0,353.3,0z M28.2,76.7
		c0-7.8,6.3-14.1,14.1-14.1h186.8c-19.1,25.7-30.5,57.6-30.5,92.1c0,66.5,42.2,123.3,101.2,145.1v165.9c0,7.8-6.3,14.1-14.1,14.1
		H42.3c-7.8,0-14.1-6.3-14.1-14.1 M353.3,281.1c-69.7,0-126.4-56.7-126.4-126.4S283.6,28.3,353.3,28.3S479.7,85,479.7,154.7
		C479.8,224.4,423.1,281.1,353.3,281.1z"/>
</g>
</svg>