<?xml version="1.0" encoding="iso-8859-1"?>
<!-- Uploaded to: SVG Repo, www.svgrepo.com, Generator: SVG Repo Mixer Tools -->
<svg version="1.1" id="Layer_1" xmlns="http://www.w3.org/2000/svg" xmlns:xlink="http://www.w3.org/1999/xlink" 
	 viewBox="0 0 512 512" xml:space="preserve">
<polyline style="fill:#AA603B;" points="160.326,366.993 503.633,366.993 503.633,7.719 144.956,7.719 144.358,351.026 "/>
<g>
	<rect x="176.291" y="39.655" style="fill:#B3B3B3;" width="223.549" height="143.709"/>
	<rect x="335.972" y="223.282" style="fill:#B3B3B3;" width="119.761" height="31.934"/>
	<rect x="335.972" y="287.15" style="fill:#B3B3B3;" width="119.761" height="31.934"/>
</g>
<rect x="176.291" y="71.587" style="fill:#C5FFCA;" width="63.868" height="23.952"/>
<g>
	<rect x="304.038" y="39.655" style="fill:#99C6E4;" width="119.761" height="47.903"/>
	<rect x="176.291" y="39.655" style="fill:#99C6E4;" width="47.903" height="31.934"/>
</g>
<rect x="296.052" y="87.559" style="fill:#C5FFCA;" width="143.709" height="63.868"/>
<polygon style="fill:#FFFFFF;" points="399.954,151.802 440.09,151.802 440.09,87.995 424.653,87.995 424.653,63.296 
	424.653,63.296 423.795,39.655 471.993,39.626 471.993,183.705 399.954,183.705 "/>
<polygon style="fill:#B3B3B3;" points="144.728,78.733 7.852,78.733 7.852,502.738 255.874,502.738 255.874,366.892 
	144.728,366.892 "/>
<rect x="8.632" y="79.573" style="fill:#F2BF7E;" width="135.723" height="63.868"/>
<circle style="fill:#FFFFFF;" cx="144.357" cy="366.99" r="15.968"/>
<rect x="8.632" y="438.845" style="fill:#F2BF7E;" width="247.497" height="63.868"/>
<polygon points="511.352,374.712 176.294,374.712 176.294,359.275 495.915,359.275 495.915,15.437 152.675,15.437 152.675,335.058 
	137.238,335.058 137.238,0 511.352,0 "/>
<path d="M144.358,390.68c-13.06,0-23.687-10.626-23.687-23.687c0-13.06,10.626-23.687,23.687-23.687s23.687,10.626,23.687,23.687
	C168.045,380.054,157.419,390.68,144.358,390.68z M144.358,358.745c-4.549,0-8.25,3.701-8.25,8.25c0,4.549,3.701,8.25,8.25,8.25
	s8.25-3.701,8.25-8.25S148.907,358.745,144.358,358.745z"/>
<rect x="89.154" y="462.597" width="87.477" height="15.437"/>
<path d="M248.671,382.329v48.369H16.085V151.802h112.176v-15.437H16.085V87.995h112.176V72.558H0.648V512h263.459V382.329H248.671z
	 M16.085,496.563v-50.428h232.585v50.428H16.085z"/>
<rect x="89.154" y="104.457" width="39.107" height="15.437"/>
<polygon style="fill:#FFFFFF;" points="112.824,375.125 32.552,375.125 32.552,312.347 96.358,312.347 96.358,295.881 
	64.455,295.881 64.455,222.812 32.552,222.812 32.552,207.375 79.892,207.375 79.892,280.444 111.795,280.444 111.795,327.784 
	47.989,327.784 47.989,359.688 112.824,359.688 "/>
<path d="M168.576,31.936v159.147h310.841V31.936H168.576z M184.013,47.373h32.754v16.952h-32.754V47.373z M184.013,79.762h48.191
	v8.233h-48.191V79.762z M391.721,175.646H184.013v-40.31h96.561v-15.437h-96.561v-16.466h63.628V64.325h-15.437V47.373h183.186
	v8.719H287.778v15.437h16.466v8.31h-15.91v79.308h103.387V175.646z M432.043,95.277v48.434H303.771V95.277H432.043z M319.681,79.839
	v-8.31h40.136v8.31H319.681z M375.254,79.839v-8.31h40.136v8.31H375.254z M463.979,175.646h-56.822v-16.498h40.324V79.839h-16.654
	v-8.31h16.466V56.092h-16.466v-8.719h33.152L463.979,175.646L463.979,175.646z"/>
<rect x="184.864" y="215.604" width="95.71" height="15.437"/>
<g>
	<rect x="184.864" y="248.537" style="fill:#FFFFFF;" width="31.903" height="15.437"/>
	<rect x="184.864" y="312.343" style="fill:#FFFFFF;" width="15.437" height="15.437"/>
	<rect x="216.767" y="312.343" style="fill:#FFFFFF;" width="15.437" height="15.437"/>
	<rect x="248.671" y="312.343" style="fill:#FFFFFF;" width="15.437" height="15.437"/>
	<rect x="280.574" y="312.343" style="fill:#FFFFFF;" width="16.466" height="15.437"/>
</g>
<rect x="184.864" y="280.44" width="112.176" height="15.437"/>
<path d="M463.448,326.81H328.253v-47.372h135.196L463.448,326.81L463.448,326.81z M343.69,311.373h104.322v-16.498H343.69V311.373z"
	/>
<path d="M463.448,262.937H328.253v-47.372h135.196L463.448,262.937L463.448,262.937z M343.69,247.5h104.322v-16.498H343.69V247.5z"
	/>
</svg>