<?xml version="1.0" encoding="utf-8"?>
<!-- Generator: Adobe Illustrator 26.0.2, SVG Export Plug-In . SVG Version: 6.00 Build 0)  -->
<svg version="1.1" id="Layer_1" xmlns="http://www.w3.org/2000/svg" xmlns:xlink="http://www.w3.org/1999/xlink" x="0px" y="0px"
	 viewBox="0 0 4133 1833" style="enable-background:new 0 0 4133 1833;" xml:space="preserve">
<style type="text/css">
	.st0{fill:none;}
	.st1{fill:#134939;}
	.st2{fill:#C3D451;}
	.st3{fill:#FFFFFF;}
</style>
<g>
	<rect class="st0" width="4132.5" height="1832.5"/>
	<g>
		<path class="st1" d="M4132.5,0H0v1480.2h4132.5V0z"/>
		<path class="st2" d="M268.2,704.3v507.6l207.6-88.3V616"/>
		<path class="st2" d="M737.4,284.6v507.6l207.6-87.9v-508"/>
		<path class="st2" d="M502.6,604.7v507.6l208-308.4v-508"/>
		<path class="st3" d="M1333.3,563.7c0,61.1,20.1,117.6,118,197.5l40.2,33.1c77.8,64.4,99.6,97.5,99.6,154.4
			c0,56.9-41.4,111.3-120.5,111.3c-32.6,0-109.2-7.9-124.7-84.9c-2.1-12.1-2.1-23.9-2.1-31.8c0-4.6,0-16.3-13-16.3
			c-12.1,0-13,13.4-13.4,20.5l-0.8,10.5c-1.3,18.4-3.8,48.1-3.8,83.7c0,24.3,0.4,31.8,16.7,39.8c34.3,16.3,74.5,24.7,122.2,24.7
			c54,0,101.7-13.4,137.7-38.5c57.8-41,78.2-105.5,78.2-152.8c0-69.5-21.3-126.8-131.8-213.8l-24.7-19.7
			c-84.9-69.5-105.9-97.9-105.9-143.5c0-57.8,41.4-96.7,102.5-96.7c73.7,0,98.3,30.5,105.5,43.5c4.6,8.8,10,31.8,10.9,41.8
			c0.4,6.7,1.7,17.6,13.8,17.6c12.6,0,12.6-17.6,12.6-27.2c0-47.3,2.1-75.7,2.9-87.5v-7.1c0.4-8.4-4.6-12.6-14.6-12.6
			c-5.9,0-12.6,0-29.3-4.2c-25.9-5.9-52.3-8.8-84.1-8.8c-113.8,0-190.4,66.5-190.4,166.1"/>
		<path class="st3" d="M2416.7,415.6c0,0-234.8,541.5-236,544c-1.3-1.7-245.6-544.9-245.6-544.9c-3.4-8-8-17.2-18-17.2
			c-11.7,0-14.7,14.6-15.9,21.3l-59.4,582.5c-2.9,31-5.4,60.3-26.8,64.9c-11.7,2.5-15.5,2.5-23.4,2.5s-14.6,4.6-14.6,10.5
			c0,5.4,2.5,14.2,20.1,14.2c14.7,0,40.6-1.2,51.1-1.7c10.9-0.4,13.8-0.4,13.8-0.4h20.5c10.1,0,39.3,1.7,60.7,2.1
			c7.1,0,20.9,0,20.9-14.2c0-6.3-5.9-10.9-13.4-10.9c-8.4,0-15.9-0.4-29.3-3.8c-9.6-2.1-16.7-10.9-16.7-21.3c0-15.1,0-31,0.8-44.8
			c0,0,30.1-391.7,31-391.7c-2.1,0,199.6,444.4,199.6,444.4c16.7,33.9,20.1,41,29.7,41c10.9,0,13.8-7.1,27.2-37.7
			c0.4,0,199.2-456.1,199.2-456.1l38.1,437.7c0,5.4,0,9.6,0.8,13.8c0,7.1,0,15.5-1.2,15.9c-7.1,2.9-8.4,7.5-8.4,11.7
			c0,11.3,12.5,13.8,28.4,15.1c31.8,1.7,120.5,1.3,138.1,1.3c21.8,0,23.4-10.9,23.4-14.2c0-3.4-1.3-10.5-13-10.5
			c-8,0-28.5,0-51.5-7.5c-31.8-11.3-37.2-59.8-40.2-88.7l-55.2-544.9c-0.8-12.6-2.5-29.7-16.3-29.7c-10.5,0-15.5,11.3-18,18"/>
		<path class="st3" d="M2841.5,455.3c0,0,0-2.1,5.4-3.3c12.1-2.9,30.1-4.2,41-4.2c83.3,0,113,75.3,113,146
			c0,32.2-10.9,63.2-30.1,85.4c-16.7,19.2-26.8,20.9-75.7,20.9c-30.6,0-46-2.5-52.3-3.3c-0.4,0-1.7-1.3-1.7-3.3
			c0-2.1,0-237.7,0-237.7 M2833.5,411.8l-33.1,0.8h-11.3c-19.2-1.3-58.6-2.5-88.7-2.5c-5,0-20.5,0-20.5,13.4
			c0,7.1,5.4,12.6,13.4,12.6c7.9,0,22.2,0,28.4,2.1c24.7,5.4,31.4,14.6,33.1,44.4c2.1,28,2.1,53.1,2.1,191.2v156.1
			c0,83.3,0,154.8-4.2,192.1c-4.2,26.4-7.9,40.6-20.5,43.1c-9.6,2.5-18.8,3.3-25.1,3.3c-9.6,0-13.8,5.9-13.8,11.7
			c0,13.8,15.9,13.8,20.9,13.8c18.8,0,46.4-1.7,66.1-2.9h20.5l33.9,1.3c29.7,1.7,70.7,3.8,84.1,3.8c152.7,0,232.7-100.4,232.7-199.6
			c0-108-86.6-171.2-148.1-190.4c45.2-30.1,78.3-85.8,78.3-156.9c0-51.9-38.9-139.8-184.1-139.8c-23.9,0-46,0.8-63.6,1.7
			 M2868.7,1042c-23.4-11.7-23.4-19.7-26.4-60.3V978c-0.8-13-0.8-124.7-0.8-191.2v-50.2c37.2,0,59.4,0.4,66.5,1.7h0.4
			c20.9,2.5,41.9,5,70.7,24.7c74.9,51.9,82.9,137.3,82.9,172c0,115.9-106.3,119.7-118.4,119.7c-8,0-50.2-0.8-75.3-12.5"/>
		<path class="st3" d="M3369.2,500.1c-66.9,76.6-88.7,178.7-86.6,249c2.9,112.2,39.3,200.9,108.4,264.1c70.3,64.9,159,92.9,278.7,90
			c49.4-1.3,114.7-8.8,149.8-25.1c16.3-8.4,19.2-11.7,24.3-30.1c7.5-31.4,15.1-109.2,14.6-115.5c-0.4-18-8.8-19.7-13-19.7
			c-10.9,0-12.1,11.7-13.8,19.2c-3.8,17.2-11.3,53.6-26.8,72c-30.6,36-76.6,44.4-136.8,46c-81.2,2.1-156.1-30.1-212.2-90.8
			c-52.7-57.8-84.5-137.7-86.6-219.7c-2.1-75.3,4.2-162,66.1-229.3c38.9-43.5,98.8-65.7,182.9-67.8c73.7-2.1,135.6,21.8,161.5,44.4
			c20.1,17.2,31.4,47.7,35.2,85c0.8,10.5,0.8,24.7,13.4,24.7c12.6,0,13-15.1,13-25.1v-31.4c0-19.2,0-43.1,0-60.3
			c0.4-19.7,1.7-31,2.1-38.5l0.8-11.7c0-9.6-5.4-14.6-17.2-15.5c-24.7-0.8-50.6-5.4-79.9-10.5l-3.4-0.8c-49.4-8.4-100.8-8-120.9-7.5
			c-111.7,3.3-194.2,36.8-253.2,104.2"/>
		<path class="st1" d="M1689.8,1621.6c0,0,0-0.8,1.7-1.2c3.8-0.8,9.6-1.3,13.4-1.3c26.8,0,36.4,24.3,36.4,47.3
			c0,10.5-3.8,20.5-9.6,27.6c-5.4,6.3-8.8,6.7-24.7,6.7c-10,0-15.1-0.8-16.7-1.3c0,0-0.4,0-0.4-1.2c0-0.8,0-77,0-77 M1687.3,1607
			h-10.9h-3.8c-6.3,0-18.8-0.8-28.9-0.8c-1.7,0-6.7,0-6.7,4.2c0,2.5,1.7,4.2,4.2,4.2s7.1,0,9.2,0.8c7.9,1.7,10,4.6,10.9,14.2
			c0.8,9.2,0.8,17.2,0.8,61.9v50.6c0,26.8,0,50.2-1.2,61.9c-1.3,8.4-2.5,13-6.7,13.8c-3.3,0.8-6.3,1.3-8.4,1.3
			c-2.9,0-4.6,2.1-4.6,3.8c0,4.6,5,4.6,6.7,4.6c6.3,0,15.1-0.4,21.3-0.8h6.7l10.9,0.4c9.6,0.4,23,1.2,27.2,1.2
			c49.4,0,75.3-32.6,75.3-64.4c0-35.2-28-55.2-47.7-61.5c14.7-9.6,25.1-27.6,25.1-50.6c0-16.7-12.5-45.2-59.4-45.2
			c-7.5,0-14.7,0-20.5,0.4 M1698.2,1810.8c-7.5-3.8-7.5-6.3-8.4-19.7v-1.3c0-4.2,0-40.2,0-61.9v-16.3c12.1,0,19.2,0,21.8,0.4
			c6.7,0.8,13.4,1.7,23,7.9c24.3,16.7,26.8,44.4,26.8,55.7c0,37.7-34.3,38.5-38.1,38.5c-2.5,0-16.3,0-24.3-4.2"/>
		<path class="st1" d="M3285.1,1607.4c-7.9,0-14.7,0-19.2,0.8c-2.1,0-4.2,0-5,0c-0.8,0-3.4,0-6.3,0c-5.9,0-15.1-0.8-23.9-0.8
			c-2.5,0-7.9,0-7.9,4.2c0,2.5,1.7,4.2,4.2,4.2c1.7,0,8.4,0,13.4,1.3c7.1,1.7,9.2,5.9,9.6,25.1l2.9,140.2c-5-5.4-12.6-13.4-21.4-23
			c-13-14.2-28.9-31.8-43.9-47.7c-44.4-47.7-87-93.7-91.2-98.3c-0.8-0.8-1.7-1.7-2.5-2.5c-3.8-4.6-6.7-7.1-9.2-7.1
			c-5,0-5.4,6.7-5.4,16.3v164.5c0,25.9-1.7,32.6-7.5,34.3c-3.3,1.2-8.4,1.7-10.9,1.7c-2.9,0-4.6,2.1-4.6,3.8c0,4.6,4.6,4.6,6.7,4.6
			c8.8,0,17.6-0.4,22.6-0.8c2.5,0,3.8,0,4.6,0c0.8,0,2.1,0,4.2,0c5.4,0,14.6,0.8,26.4,0.8c2.1,0,7.1,0,7.1-4.6
			c0-1.7-1.3-3.8-4.2-3.8c-0.8,0-7.5,0-13.8-1.7c-5.9-1.7-9.2-7.1-9.6-31.4l-3.8-131.8c12.6,14.2,41.4,46,71.1,78.3
			c31,33.1,72,75.3,74.9,77.8c15.9,16.3,19.2,18.8,22.6,18.8c4.6,0,4.6-3.8,4.6-22.6v-168.2c0.4-18,2.1-21.8,9.6-23.4
			c3.4-0.8,5-0.8,6.3-0.8c3.8,0,5.4-2.1,5.4-4.2c0-4.2-5-4.2-7.1-4.2"/>
		<path class="st1" d="M2509.2,1607.4c-7.9,0-14.6,0-19.2,0.8c-2.5,0-4.2,0-5,0c-0.8,0-3.3,0-6.3,0c-5.9,0-15.1-0.8-23.9-0.8
			c-2.5,0-7.9,0-7.9,4.2c0,2.5,1.7,4.2,4.6,4.2c1.7,0,8.4,0,13.4,1.3c6.7,1.7,9.2,5.9,9.6,25.1l2.9,140.2c-5-5.4-12.5-13.4-21.3-23
			c-13-14.2-28.9-31.8-43.9-47.7c-44.4-47.7-87-93.7-91.2-98.3c-0.8-0.8-1.7-1.7-2.5-2.5c-4.2-4.6-6.7-7.1-9.2-7.1
			c-5,0-5.4,6.7-5.4,16.3v164.5c0,25.9-1.7,32.6-7.5,34.3c-3.3,1.2-8.4,1.7-10.9,1.7c-2.9,0-4.6,2.1-4.6,3.8c0,4.6,4.6,4.6,6.7,4.6
			c8.8,0,17.6-0.4,22.6-0.8c2.5,0,3.8,0,4.6,0c0.8,0,2.1,0,4.2,0c5.4,0,14.6,0.8,26.4,0.8c2.1,0,7.1,0,7.1-4.6
			c0-1.7-1.3-3.8-4.2-3.8c-0.8,0-7.5,0-13.8-1.7c-5.9-1.7-9.2-7.1-9.6-31.4l-3.8-131.8c12.6,14.2,41.4,46,71.1,78.3
			c31,33.1,72,75.3,74.9,77.8c15.9,16.3,19.2,18.8,22.6,18.8c4.6,0,4.6-3.8,4.6-22.6v-168.2c0.4-18,2.1-21.8,9.6-23.4
			c3.3-0.8,5-0.8,6.3-0.8c3.8,0,5.4-2.1,5.4-4.2c0-4.2-5-4.2-7.1-4.2"/>
		<path class="st1" d="M2245.6,1820.4c-2.5,0-8.4-0.4-12.6-1.2c-6.7-0.8-8.4-5.4-9.2-13.8c-1.2-12.1-1.2-35.2-1.2-61.9v-50.6
			c0-44.8,0-52.7,0.4-61.9c0.4-10,2.5-13.4,9.2-14.6c3.4-0.4,4.6-0.8,6.7-0.8c2.5,0,4.2-1.7,4.2-3.8c0-4.6-5-4.6-6.7-4.6
			c-6.3,0-16.7,0.4-23.4,0.8c-2.5,0-4.2,0-4.6,0c-0.4,0-2.1,0-4.6,0c-6.3,0-17.6-0.8-24.3-0.8c-1.7,0-6.7,0-6.7,4.6
			c0,2.1,2.1,3.8,4.2,3.8c1.7,0,5,0,8.4,1.2c3.8,0.8,7.5,3.3,7.9,14.2c0.4,9.2,0.4,17.2,0.4,61.9v50.6c0,26.8,0,50.2-1.2,61.9
			c-1.3,8.8-2.5,13.4-6.7,14.2c-2.9,0.8-6.3,1.3-7.9,1.3c-2.9,0-4.6,2.1-4.6,3.8c0,4.2,5,4.2,6.7,4.2c6.3,0,16.7,0,23.4-0.8
			c2.5,0,4.2,0,4.6,0c0,0,1.7,0,3.4,0c6.3,0,19.7,0.8,31.8,0.8c5.9,0,6.7-2.9,6.7-4.2c0-1.7-1.3-3.8-4.2-3.8"/>
		<path class="st1" d="M3964.3,1821.2c-2.9,0-6.7,0-10.9-1.7c-6.3-1.7-13.8-6.7-23.4-30.6c-12.6-31-38.5-99.6-54.4-140.6
			c-6.3-16.7-11.3-28.9-12.1-32.2c-3.3-8.8-5-11.3-7.9-11.3s-4.2,2.5-7.9,12.1l-64.9,177.8c-5.4,15.1-10.9,24.3-22.6,26
			c-2.5,0-6.3,0.8-7.9,0.8c-2.5,0-4.2,1.2-4.2,3.3c0,4.2,5,4.2,7.1,4.2c9.2,0,19.2-0.4,25.9-0.8c2.9,0,5.4,0,6.7,0
			c1.3,0,4.2,0,7.1,0c5,0,10.9,0.4,15.1,0.4c5,0,6.3-2.1,6.3-4.2c0-0.8-0.4-3.3-4.6-3.3h-2.9c-3.4,0-9.2-1.7-9.2-6.7
			c0-5,1.7-11.7,3.8-18.8l15.9-48.1c0,0,0.8-1.3,1.2-1.3h64c0,0,0.4,0,0.8,0.4l25.5,68.2c0.8,2.5,0.4,3.8,0,4.6
			c0,0.8-0.8,0.8-0.8,0.8c-2.9,0.8-3.4,2.9-3.4,3.8c0,3.3,3.8,3.3,8.8,3.8h1.3c13,0.4,28.9,0.8,45.2,0.8c6.3,0,7.5-2.1,7.5-4.2
			c0-2.1-1.7-3.3-4.6-3.3 M3824.1,1732.5l26.4-79.1c0,0,0-0.8,0.4-1.3c0,0,0,0.8,0.4,1.3l28,79.1h-55.7H3824.1z"/>
		<path class="st1" d="M215.5,1621.6c0,0,0-0.8,1.7-1.2c3.8-0.8,9.6-1.3,13.4-1.3c26.8,0,36.4,24.3,36.4,47.3
			c0,10.5-3.3,20.5-9.6,27.6c-5.4,6.3-8.8,6.7-24.7,6.7c-10,0-15.1-0.8-16.7-1.3c0,0-0.4,0-0.4-1.2c0-0.8,0-77,0-77 M213,1607h-10.9
			h-3.8c-6.3,0-18.8-0.8-28.9-0.8c-1.7,0-6.7,0-6.7,4.2c0,2.5,1.7,4.2,4.2,4.2c2.5,0,7.1,0,9.2,0.8c8,1.7,10,4.6,10.9,14.2
			c0.8,9.2,0.8,17.2,0.8,61.9v50.6c0,26.8,0,50.2-1.3,61.9c-1.3,8.4-2.5,13-6.7,13.8c-3.3,0.8-6.3,1.3-8.4,1.3
			c-2.9,0-4.6,2.1-4.6,3.8c0,4.6,5,4.6,6.7,4.6c6.3,0,15.1-0.4,21.3-0.8h6.7l10.9,0.4c9.6,0.4,23,1.2,27.2,1.2
			c49.4,0,75.3-32.6,75.3-64.4c0-35.2-28-55.2-47.7-61.5c14.6-9.6,25.1-27.6,25.1-50.6c0-16.7-12.6-45.2-59.4-45.2
			c-7.5,0-14.6,0-20.5,0.4 M223.9,1810.8c-7.5-3.8-7.5-6.3-8.4-19.7v-1.3c0-4.2,0-40.2,0-61.9v-16.3c12.1,0,19.2,0,21.8,0.4
			c6.7,0.8,13.4,1.7,23,7.9c24.3,16.7,26.8,44.4,26.8,55.7c0,37.7-34.3,38.5-38.1,38.5c-2.5,0-16.3,0-24.3-4.2"/>
		<path class="st1" d="M1034.9,1818.7c-2.1,0-10-0.8-16.7-3.8c-13.4-5.4-18-10-41.4-31.8h-0.8c-10.9-10.9-65.7-67.4-77.4-79.9
			c9.6-10.5,54.8-54.8,61.5-61.5c1.7-1.7,3.8-3.3,5-5c9.6-9.2,15.5-15.1,25.1-19.2c5-2.5,10.9-3.8,15.1-3.8c3.3,0,5-1.2,5-4.2
			c0-4.2-4.6-4.2-6.3-4.2c-5,0-15.9,0-22.2,0.8c-2.9,0-5,0-5.4,0c-3.3,0-7.5,0-11.7-0.4c-3.8,0-7.1,0-10,0c-5,0-5.4,3.4-5.4,4.2
			c0,2.5,2.5,3.8,3.8,4.2c1.3,0.4,2.5,1.3,2.5,4.2c0,3.8-7.1,10.9-13.8,18l-1.3,1.3c-5.4,5.9-23,23.8-38.5,39.8
			c-11.3,11.7-21.3,21.8-25.9,26.8v-13c0-44.8,0-52.7,0.4-61.9c0.4-10.1,2.5-13.4,9.2-14.7c3.3-0.4,5-0.8,6.7-0.8
			c2.5,0,4.6-1.7,4.6-3.8c0-4.6-5-4.6-6.7-4.6c-5.4,0-14.2,0-20.9,0.4c-3.3,0-5.9,0-7.1,0c-0.4,0-2.1,0-4.2,0
			c-6.3,0-18-0.8-27.2-0.8c-1.7,0-6.7,0-6.7,4.6c0,2.1,2.1,3.8,4.2,3.8c2.1,0,7.1,0,9.2,0.8c8,1.7,10,4.6,10.5,14.7
			c0.4,9.2,0.4,17.2,0.4,61.9v50.6c0,26.8,0,50.2-1.3,61.9c-1.3,8.8-2.5,13.4-6.7,14.2c-2.9,0.8-6.3,1.3-8,1.3
			c-2.9,0-4.6,2.1-4.6,3.8c0,4.6,5,4.6,6.7,4.6c5.9,0,15.1,0,21.3-0.8c3.3,0,5.4,0,6.3,0c0.8,0,2.5,0,5,0c6.7,0,18,0.8,28,0.8
			c5.9,0,6.7-2.9,6.7-4.6c0-2.1-1.3-3.8-4.2-3.8c-2.1,0-5.9,0-10.9-1.3c-6.7-0.8-8.4-5.4-9.2-13.8c-1.3-11.7-1.3-35.2-1.3-61.9
			v-23.9c17.2,20.5,73.2,80.3,85.4,90.8l2.1,1.7c11.3,9.2,18.8,15.1,33.9,16.3c6.3,0.4,11.7,0.4,20.1,0.4h14.7c2.5,0,8.4,0,8.4-4.6
			C1040.8,1820.8,1039.1,1818.7,1034.9,1818.7z"/>
		<path class="st1" d="M780,1607.4c-8,0-14.6,0-19.2,0.8c-2.1,0-4.2,0-5,0c-0.8,0-3.3,0-6.3,0c-5.9,0-15.1-0.8-23.9-0.8
			c-2.9,0-8,0-8,4.2c0,2.5,1.7,4.2,4.2,4.2c1.7,0,8.4,0,13.4,1.3c6.7,1.7,9.2,5.9,9.6,25.1l2.9,140.2c-5-5.4-12.6-13.4-21.3-23
			c-13-14.2-28.9-31.8-43.9-47.7c-44.4-47.7-87-93.7-91.2-98.3c-0.8-0.8-1.7-1.7-2.5-2.5c-3.8-4.6-6.7-7.1-9.2-7.1
			c-5,0-5.4,6.7-5.4,16.3v164.5c0,25.9-1.7,32.6-7.5,34.3c-3.8,1.2-8.4,1.7-10.9,1.7c-2.9,0-4.6,2.1-4.6,3.8c0,4.6,4.6,4.6,6.7,4.6
			c8.8,0,17.6-0.4,22.6-0.8c2.5,0,3.8,0,4.6,0c0.8,0,2.1,0,4.2,0c5.4,0,14.6,0.8,26.4,0.8c2.1,0,7.1,0,7.1-4.6
			c0-1.7-1.3-3.8-4.2-3.8c-0.8,0-7.5,0-13.8-1.7c-5.9-1.7-9.2-7.1-9.6-31.4l-3.8-131.8c12.6,14.2,41.4,46,71.1,78.3
			c31,33.1,72,75.3,74.9,77.8c15.9,16.3,19.2,18.8,22.6,18.8c4.6,0,4.6-3.8,4.6-22.6v-168.2c0.4-18,2.1-21.8,9.6-23.4
			c3.3-0.8,5-0.8,6.3-0.8c3.8,0,5.4-2.1,5.4-4.2c0-4.2-5-4.2-7.1-4.2"/>
		<path class="st1" d="M536.9,1821.2c-2.9,0-6.7,0-10.9-1.7c-6.3-1.7-13.8-6.7-23.4-30.6c-12.6-31-38.5-99.6-54.4-140.6
			c-6.3-16.7-11.3-28.9-12.1-32.2c-3.3-8.8-5-11.3-8-11.3c-2.9,0-4.2,2.5-8,12.1l-64.9,177.8c-5.4,15.1-10.9,24.3-22.6,26
			c-2.5,0-6.3,0.8-8,0.8c-2.5,0-4.2,1.2-4.2,3.3c0,4.2,5,4.2,7.1,4.2c9.2,0,19.2-0.4,25.9-0.8c3.3,0,5.4,0,6.7,0c1.3,0,3.8,0,7.1,0
			c5,0,10.9,0.4,15.1,0.4c5,0,6.3-2.1,6.3-4.2c0-0.8-0.4-3.3-4.6-3.3h-2.9c-3.3,0-9.2-1.7-9.2-6.7c0-5,1.3-11.7,3.8-18.8l15.9-48.1
			c0,0,0.8-1.3,1.3-1.3h64c0,0,0.4,0,0.8,0.4l25.5,68.2c0.8,2.5,0.4,3.8,0,4.6c0,0.8-0.8,0.8-0.8,0.8c-2.9,0.8-3.3,2.9-3.3,3.8
			c0,3.3,3.8,3.3,8.8,3.8h1.3c13,0.4,28.9,0.8,45.2,0.8c6.3,0,7.5-2.1,7.5-4.2c0-2.1-1.7-3.3-4.6-3.3 M396.7,1732.5l26.4-79.1
			c0,0,0-0.8,0.4-1.3c0,0,0,0.8,0.4,1.3l28,79.1h-55.7H396.7z"/>
		<path class="st1" d="M3451.6,1785.7c-3.3,0-3.8,3.3-4.2,5.9c-1.7,11.3-5,16.3-11.7,19.2c-7.1,2.9-19.7,2.9-26.8,2.9
			c-28,0-30.6-3.8-31.4-21.8c0-4.2,0-22.6,0-36.4c0-5.4,0-10.1,0-12.6v-25.5c5,0,33.1,0.4,41,1.2c9.6,0.8,12.1,4.6,13.4,8.8
			c1.2,3.3,1.2,6.3,1.2,8.8s1.3,4.2,3.8,4.2c3.8,0,3.8-4.6,3.8-7.1c0-1.7,0.4-12.1,1.3-18c0.4-5.9,1.2-9.6,1.7-12.5
			c0-1.7,0.4-2.9,0.4-3.8c0-3.8-2.5-4.2-3.4-4.2c-1.7,0-2.9,1.7-5,3.8h-0.4c-2.1,2.9-5.4,3.3-12.1,4.2c-5,0.4-26.4,0.4-45.2,0.8
			c0,0,0,0,0-1.3v-79.1c0,0,0-0.8,0-1.3c3.8,0,34.3,0.4,38.9,0.8c15.5,1.2,17.2,5,18.8,8.8c1.3,2.9,1.7,7.5,1.7,9.6
			c0,4.6,2.5,5.4,4.2,5.4c2.1,0,2.9-1.7,3.8-4.6c0-2.5,0.8-8.4,0.8-13.4c0-2.5,0-5,0.4-5.9c0.4-4.6,1.3-7.5,1.7-10
			c0-1.7,0.8-2.9,0.8-3.8c0-3.8-2.1-4.2-2.9-4.2c-1.2,0-2.1,0.4-2.9,0.8c-0.4,0-0.8,0.4-1.7,0.8c-2.5,0.8-9.6,1.2-11.7,1.2
			c-6.3,0-55.7,0-70.7,0c-8.8,0-20.5-0.8-27.2-0.8c-1.7,0-6.3,0-6.3,4.2c0,2.1,1.7,3.3,4.2,3.3s7.1,0,9.2,0.8
			c7.9,1.7,10.5,5,10.9,14.6c0.4,9.2,0.4,17.2,0.4,61.9v50.2c0,26.8,0,50.2-1.2,61.9c-1.3,8.8-2.5,13.4-7.1,14.2
			c-3.4,0.8-6.3,1.3-8.4,1.3c-2.9,0-4.2,1.7-4.2,3.3c0,4.2,4.6,4.2,6.3,4.2c2.1,0,4.6,0,7.1,0c2.9,0,6.3,0,9.2,0
			c5.8,0,10.9,0,11.3,0c4.2,0,10.1,0,22.2,0.8h6.3c10.5,0,24.7,0.8,42.3,0.8c10.9,0,14.6,0,17.2-8.8c1.2-5.9,3.8-25.5,3.8-28
			C3455,1789.8,3455,1785.7,3451.6,1785.7z"/>
		<path class="st1" d="M1553,1608.6c0,0-75.8,174.9-76.2,175.8c-0.4-0.4-79.5-176.2-79.5-176.2c-1.3-2.5-2.5-5.4-5.9-5.4
			c-3.8,0-4.6,4.6-5,6.7l-19.2,188.3c-0.8,10-1.7,19.7-8.8,20.9c-3.8,0.8-5,0.8-7.5,0.8s-4.6,1.7-4.6,3.3c0,1.7,0.8,4.6,6.7,4.6
			c4.6,0,13,0,16.3-0.4c3.8,0,4.6,0,4.6,0h6.7c3.3,0,12.6,0.4,19.7,0.8c2.1,0,6.7,0,6.7-4.6c0-2.1-2.1-3.3-4.2-3.3
			c-2.5,0-5,0-9.6-1.2c-3.3-0.8-5.4-3.3-5.4-7.1c0-5,0-10,0-14.6c0,0,9.6-126.8,10-126.8c-0.8,0,64.5,143.5,64.5,143.5
			c5.4,10.9,6.7,13.4,9.6,13.4c3.3,0,4.6-2.1,8.8-12.1l64.5-147.3l12.1,141.4c0,0,0,3.3,0,4.6c0,2.1,0,5-0.4,5
			c-2.5,0.8-2.9,2.5-2.9,3.8c0,3.8,4.2,4.6,9.2,5c10.5,0.4,38.9,0,44.8,0c7.1,0,7.5-3.3,7.5-4.6c0-1.2,0-3.3-4.2-3.3
			c-2.5,0-9.2,0-16.7-2.5c-10.5-3.8-12.1-19.2-13-28.9l-18-176.2c0-4.2-0.8-9.6-5.4-9.6c-3.3,0-5,3.8-5.9,5.9"/>
		<path class="st1" d="M3503.9,1656.8c0,19.7,6.3,38.1,38.1,64l13,10.9c25.1,20.9,32.2,31.4,32.2,49.8c0,18.4-13.4,36-38.9,36
			c-10.5,0-35.2-2.5-40.2-27.6c-0.8-3.8-0.8-7.5-0.8-10c0-1.7,0-5.4-4.2-5.4c-3.8,0-4.2,4.6-4.2,6.7v3.3c-0.8,5.9-1.2,15.5-1.2,27.2
			c0,8,0,10.5,5.4,13c11.3,5.4,24.3,8,39.3,8c17.6,0,32.7-4.2,44.4-12.6c18.8-13.4,25.1-34.3,25.1-49.4c0-22.6-7.1-41-42.7-69
			l-7.9-6.3c-27.2-22.6-34.3-31.8-34.3-46.5c0-18.8,13.4-31.4,33.1-31.4c23.9,0,31.8,10,33.9,14.2c1.7,2.9,3.4,10.5,3.4,13.4
			c0,2.1,0.4,5.9,4.2,5.9c4.2,0,4.2-5.9,4.2-8.8c0-15.5,0.8-24.3,0.8-28.5v-2.1c0-2.9-1.2-4.2-4.6-4.2c-2.1,0-4.2,0-9.6-1.3
			c-8.4-2.1-16.7-2.9-27.2-2.9c-36.8,0-61.5,21.8-61.5,53.6"/>
		<path class="st1" d="M1202.3,1656.8c0,19.7,6.7,38.1,38.1,64l13,10.9c25.1,20.9,32.2,31.4,32.2,49.8c0,18.4-13.4,36-38.9,36
			c-10.5,0-35.2-2.5-40.2-27.6c-0.8-3.8-0.8-7.5-0.8-10c0-1.7,0-5.4-4.2-5.4c-4.2,0-4.2,4.6-4.2,6.7v3.3c-0.8,5.9-1.2,15.5-1.2,27.2
			c0,8,0,10.5,5.4,13c11.3,5.4,24.3,8,39.3,8c17.6,0,32.6-4.2,44.4-12.6c18.8-13.4,25.1-34.3,25.1-49.4c0-22.6-7.1-41-42.7-69
			l-7.9-6.3c-27.2-22.6-34.3-31.8-34.3-46.5c0-18.8,13.4-31.4,33.1-31.4c23.8,0,31.8,10,33.9,14.2c1.7,2.9,3.3,10.5,3.3,13.4
			c0,2.1,0.4,5.9,4.2,5.9c4.2,0,4.2-5.9,4.2-8.8c0-15.5,0.8-24.3,0.8-28.5v-2.1c0-2.9-1.7-4.2-4.6-4.2c-2.1,0-4.2,0-9.6-1.3
			c-8.4-2.1-16.7-2.9-27.2-2.9c-36.8,0-61.5,21.8-61.5,53.6"/>
		<path class="st1" d="M3729.1,1820.4c-2.5,0-8.4-0.4-12.6-1.2c-6.7-0.8-8.4-5.4-9.2-13.8c-1.3-12.1-1.3-35.2-1.3-61.9v-50.6
			c0-44.8,0-52.7,0.4-61.9c0.4-10,2.5-13.4,9.2-14.6c3.3-0.4,4.6-0.8,6.7-0.8c2.5,0,4.2-1.7,4.2-3.8c0-4.6-5-4.6-6.7-4.6
			c-6.3,0-16.7,0.4-23.4,0.8c-2.5,0-4.2,0-4.6,0c-0.4,0-2.1,0-4.6,0c-6.3,0-17.6-0.8-24.3-0.8c-1.7,0-6.7,0-6.7,4.6
			c0,2.1,2.1,3.8,4.2,3.8c1.7,0,5,0,8.4,1.2c3.8,0.8,7.5,3.3,7.9,14.2c0.4,9.2,0.4,17.2,0.4,61.9v50.6c0,26.8,0,50.2-1.2,61.9
			c-1.3,8.8-2.5,13.4-6.7,14.2c-2.9,0.8-5.9,1.3-7.9,1.3c-2.9,0-4.6,2.1-4.6,3.8c0,4.2,5,4.2,6.7,4.2c6.3,0,16.7,0,23.4-0.8
			c2.5,0,4.2,0,4.6,0c0,0,1.7,0,3.4,0c6.3,0,19.7,0.8,31.8,0.8c6.3,0,6.7-2.9,6.7-4.2c0-1.7-1.2-3.8-4.2-3.8"/>
		<path class="st1" d="M1860.1,1636.3c-21.8,24.7-28.5,57.8-28,80.3c0.8,36.4,12.6,64.9,35.2,85.4c22.6,20.9,51.5,30.1,90,28.9
			c15.9,0,36.8-2.9,48.6-7.9c5.4-2.5,6.3-3.8,7.9-9.6c2.5-10.1,5-35.2,4.6-37.2c0-5.9-2.9-6.3-4.2-6.3c-3.3,0-3.8,3.8-4.6,6.3
			c-1.2,5.4-3.8,17.6-8.8,23.4c-9.6,11.7-24.7,14.2-44.4,15.1c-26.4,0.8-50.6-9.6-68.6-29.3c-17.2-18.8-27.2-44.8-28-71.1
			c-0.8-24.3,1.2-52.3,21.3-74.1c12.6-14.2,31.8-21.3,59-21.8c23.9-0.4,43.9,7.1,52.3,14.2c6.7,5.4,10.1,15.5,11.3,27.6
			c0,3.3,0,8,4.2,8c4.2,0,4.2-5,4.2-8v-29.7c0-6.3,0.4-10,0.8-12.6v-3.8c0-3.3-1.7-4.6-5.4-5c-7.9,0-16.3-1.7-25.9-3.4h-0.8
			c-15.9-2.9-32.6-2.9-38.9-2.5c-36,0.8-62.8,12.1-82,33.5"/>
		<path class="st1" d="M2923.1,1601.1c-83.7,0-115.1,69.9-115.1,114.2c0,55.2,35.6,114.7,113.4,114.7c67.4,0,116.3-50.2,116.3-119.3
			c0-32.6-11.3-60.7-32.6-80.3C2984.6,1611.6,2955.7,1601.1,2923.1,1601.1z M2921,1614.9c41,0,85.4,32.6,85.4,103.8
			c0,91.7-64.4,96.2-77,96.2c-52.7,0-89.6-44.4-89.6-108c0-56.9,31.4-92.5,81.6-92.5"/>
		<path class="st1" d="M2637.7,1608.6c-14.2,0.4-23,0.8-36,0.8c-15.9,0-29.3-0.8-38.9-0.8c-1.7,0-6.3,0-6.3,4.2
			c0,2.1,1.7,3.3,4.2,3.3s7.1,0,9.2,0.8c8,1.7,10.5,5,10.9,14.7c0.4,9.2,0.4,17.2,0.4,61.9v50.2c0,26.8,0,50.2-1.3,61.9v2.1
			c-1.3,7.5-2.1,10.9-7.1,12.1c-2.5,0.4-5.9,1.3-8,1.3c-2.9,0-4.2,1.7-4.2,3.3c0,4.2,4.6,4.2,6.3,4.2c2.1,0,4.6,0,7.1,0
			c2.9,0,6.3,0,9.6,0c8.4,0,15.1,0,18.8,0c4.2,0,9.6,0.8,15.9,1.3h6.3c9.2,1.2,17.2,1.7,27.2,1.7c47.7,0,71.6-19.2,85.4-33.5
			c19.7-20.9,31-50.6,31-82c0-37.2-15.1-60.7-27.6-74.1c-32.6-33.5-74.9-33.5-102.9-33.1 M2717.2,1792.3c-17.2,17.2-38.9,26-64,26
			c-33.9,0-38.1-6.3-41-10.9c-2.1-2.9-2.5-16.3-2.9-20.9c0-5-0.4-30.5-0.4-61.9V1689c0-21.8,0-51.5,0-61.1c0-2.5,0.4-3.3,2.5-4.2
			c1.7-0.8,10.5-1.7,16.7-1.7c34.7,0,57.8,2.1,84.1,29.7c12.1,13,26.8,36,26.8,73.2C2738.9,1753,2730.6,1779,2717.2,1792.3z"/>
	</g>
</g>
</svg>
